<?xml version="1.0" encoding="UTF-8"?>
<svg version="1.1" viewBox="0 0 2048 952" width="1280" height="1280" xmlns="http://www.w3.org/2000/svg">
<path transform="translate(0)" d="m0 0h2048v952h-2048z" fill="#FDFDFD"/>
<path transform="translate(966,334)" d="m0 0h23l20 2 22 5 21 8 19 10 15 10 10 8 10 9 9 9 13 17 8 13 9 17 6 15 6 23 2 13 1 14v13l-2 23-6 27-8 21-8 16-7 11-8 10-12 14-13 12-16 12-19 11-15 7-24 8-19 4-9 1h-35l-14-2-19-5-15-5-18-8-17-10-12-9-10-9-8-7-7-8-8-9-7-10-10-17-8-19-7-24-3-15-1-9v-31l3-21 6-22 8-19 9-17 9-13 8-10 9-10 7-7 14-11 11-8 16-9 13-6 21-7 17-4z" fill="#2F98D4"/>
<path transform="translate(966,334)" d="m0 0h23l20 2 22 5 21 8 19 10 15 10 10 8 10 9 9 9 13 17 8 13 9 17 6 15 6 23 2 13 1 14v13l-2 23-6 27-8 21-8 16-7 11-8 10-12 14-13 12-16 12-19 11-15 7-24 8-19 4-9 1h-35l-14-2-19-5-15-5-18-8-17-10-12-9-10-9-8-7-7-8-8-9-7-10-10-17-8-19-7-24-3-15-1-9v-31l3-21 6-22 8-19 9-17 9-13 8-10 9-10 7-7 14-11 11-8 16-9 13-6 21-7 17-4zm-3 32-20 3-20 6-19 9-18 12-14 12-8 8-12 16-9 16-5 10-6 18-4 18-1 9v29l5 25 7 19 9 17 8 12 12 14 9 9 14 11 15 9 15 7 18 6 14 3 8 1h30l20-3 20-6 23-11 15-10 11-9 9-9 13-17 9-15 8-17 5-16 4-23v-26l-4-24-6-18-9-19-9-14-9-11-11-12-11-9-15-10-21-10-19-6-15-3-9-1z" fill="#020202"/>
<path transform="translate(973,442)" d="m0 0h9l14 3 12 5 10 6 10 9 7 10 6 12 4 15v15l-3 14-5 12-8 11-8 8-10 7-11 5-14 4-13 1-16-4-12-5-10-7-8-7-10-14-4-8-6-29 1-1h14l16-4 10-7 6-9 4-11v-13l-3-11v-4z" fill="#020202"/>
<path transform="translate(911,427)" d="m0 0h17l11 4 8 6 8 8 4 15v13l-4 11-6 9-9 7-12 4-13 1h-9l-10-7-9-9-5-10-2-7v-13l5-13 9-10 9-6z" fill="#FEFEFE"/>
<path transform="translate(1164,409)" d="m0 0 6 1 3 5 142 1 6 3 16 17 8 9 2 1h153l13-13 7-10 4-12 4-2h6l5 5 1 5-4 6-4 2-5-1-12 11-13 13-6 2h-146l-7-3-15-15-7-8-4-3-3-1h-137l-5 3-5 4-6-1-5-8-1-5 5-4z" fill="#020202"/>
<path transform="translate(1571,409)" d="m0 0h7l5 5 1 3-6 7-8 3-8 7-8 8-8 7-7 7-7 8-11 11-7 5-3 1-12 1h-162l-7-3-18-18-7-8-9-2h-101l-10 1-5 5-4 1-5-3-4-8 1-5 9-4 5 1 4 6 2 1 118 1 9 9 7 8 9 10 7 2h168l9-3 10-9 15-16 22-22 4-7 2-8z" fill="#020202"/>
<path transform="translate(457,415)" d="m0 0h7l4 6 1 7 9 11 42 42 7 3h136l8-6 14-16 8-7 6-2h67l4-6 10 1 3 1 1 6-3 8-2 2h-6l-6-4-2-2-11-1h-56l-10 9-19 19-4 2-7 1h-133l-5-2-10-9-11-10-7-8-14-14-8-7-5-5-10-3-5-4 1-6 4-5z" fill="#020202"/>
<path transform="translate(1504,561)" d="m0 0 7 2 3 4v8l-2 4-2 1h-9l-2-2v-5l-309 1-5 5-4 2-5-1-5-5v-6l4-6 1-1h8l4 5 3 1h233l74-1 3-5z" fill="#020202"/>
<path transform="translate(762,509)" d="m0 0h8l4 1 1 2v10l-2 4-8 2-3-1-3-6-51-1h-85l-8 2-10 9-12 13-8 6-28 1h-77l-2 5-4 2-6-1-3-3v-12l3-3h8l4 5 6 1h99l8-7 12-13 9-8 6-2h140v-5z" fill="#020202"/>
<path transform="translate(1183,469)" d="m0 0h7l4 6 91 1 5 3 57 57 5 1h72l4-2 2-5 8 1 5 4 1 8-2 4-6 3-6-1-3-3v-3h-22l-57-1-5-3-9-8-7-8-23-23-8-7-7-8-5-4-4-1h-29l-56 1-7 6h-7l-4-4-2-9 3-3z" fill="#020202"/>
<path transform="translate(500,418)" d="m0 0h8l4 5 1 6h-2l3 5 8 8 7 8 4 4 5 1h105l9-1 5-3 9-11 10-10 7-5 7-1h62l27-1 2-5h6l8 5 1 4-6 9-5 1-6-4-2-3-6-1h-83l-5 2-10 9-12 13-6 5-3 1h-120l-11-11-8-7-6-5-10-2-3-6 1-4 3-5z" fill="#020202"/>
<path transform="translate(1167,591)" d="m0 0 7 1 3 5 64 1h77l6 4 12 13 11 12 3 1 41 1 2-7 6-1 6 3 2 6-1 7-4 3h-8l-4-5-37-1-7-3-10-9-10-10-7-8h-140l-5 5-9 1-4-4-1-8 4-6z" fill="#020202"/>
<path transform="translate(786,598)" d="m0 0 7 1 5 8v7l-9 3-5-1-2-6-107 1-10 9-19 19-7 2h-102l-1 5-2 2h-9l-3-2v-12l4-4h8l3 5 12 1h90l7-3 26-26 3-1 100-1 8-1z" fill="#020202"/>
<path transform="translate(953,70)" d="m0 0h8l6 6 1 4-4 6-4 1v60l6 8 39 39 8 7 8 8 1 6v84l6 4v8l-3 7h-7l-5-3-3-5 1-5 3-5 2-1 1-25v-58l-3-7-10-10-8-7-38-38-3-7-1-61-5-2-1-1v-7l3-1 1-4z" fill="#020202"/>
<path transform="translate(796,391)" d="m0 0 10 1 4 5v5l-6 7-5 1-9-7-56-1h-56l-9 2-8 7-7 8-12 12-2 1-20 1h-14l-8-1-1 6-2 2h-7l-4-5-1-7 3-6 5-2 5 1 2 3v3h42l6-5 9-11 11-11 7-3h119z" fill="#020202"/>
<path transform="translate(960,714)" d="m0 0h9l4 2 2 4v8l-4 2-1 2-1 14v66l3 7 7 8 15 14 5 7 1 35 1 6 5 5 1 6-6 5h-8l-4-3-1-9 4-4 4-1-1-38-6-8-17-16-6-7-1-2-1-14v-70l-7-6-1-7 2-5z" fill="#020202"/>
<path transform="translate(1286,353)" d="m0 0 8 2 4 5-1 9-5 4h-6l-4-4v-3l-37-1h-43l-6 4-19 19-9 7-12 3-7 5-4-2-7-8 2-5 5-4 1-2 7 1 5 6 3 5 8-5 28-28 3-1h81l2-6z" fill="#020202"/>
<path transform="translate(617,570)" d="m0 0h6l4 4 1 2 36 1h88l18-1 2-5 9-1 4 5 1 3v7l-5 3-7 2-3-6v-2h-31l-113-1-1 6-2 2h-6l-6-5-1-7 3-5z" fill="#020202"/>
<path transform="translate(1108,208)" d="m0 0 7 3 4 6-1 5-4 4-2 32-6 8-13 13-8 7-3 6v18l1 12 6 7-1 5-5 5-4 1-9-6-1-7 6-6 1-5 1-26 4-6 13-13 8-7 4-6v-31l-7-6 1-6 3-5z" fill="#020202"/>
<path transform="translate(1291,530)" d="m0 0 8 1 3 4 1 7-2 5-2 2-9 1-6-7h-87l-5 5-6 3h-2v-2l-4-2-3-3 1-8 5-5h7l5 6h78l13-1 3-5z" fill="#020202"/>
<path transform="translate(899,701)" d="m0 0 7 1 7 3 2 7-5 5-3 6v8l-2 8-6 8-22 22-1 3-1 36 5 2 3 5-1 5-5 4-7 1-5-3-1-10 5-5 2-36 2-5 20-20 8-9 1-12-2-6-4-5-1-6 2-5z" fill="#020202"/>
<path transform="translate(954,195)" d="m0 0h7l5 4 1 2v6l-5 5-2 1-1 7 11 12 14 14 6 7v41l6 4 2 7-3 7-4 2-7-1-5-6v-5l4-4 1-4 1-16v-20l-3-7-8-9-8-7-8-8-5-10-2-7-3-3v-6l4-5z" fill="#020202"/>
<path transform="translate(824,650)" d="m0 0 7 1 3 4 1 5-3 6-3 2h-6l-8-5-3-1h-15l-8 4-49 49-5 7-1 10-3 3-8 1-6-5-1-8 4-4 12-3 12-11 43-43 8-4 19-1 8-5z" fill="#020202"/>
<path transform="translate(1027,708)" d="m0 0 7 1 3 6v6l-5 7-1 26v71l2 14 5 4 1 3-4 5-5 3-8-1-4-9 2-4 5-3 1-3v-107l-6-5-1-9 4-4z" fill="#020202"/>
<path transform="translate(808,246)" d="m0 0 5 1 3 3 1 5-1 2 9 11 43 43 3 6 4 13 3 4-1 5-9 6-4-2-5-4-1-7 7-8 1-6-6-9-11-11-8-7-26-26-4-2-6 2-6-6v-6l4-5z" fill="#020202"/>
<path transform="translate(932,709)" d="m0 0 5 1 6 4 1 1v6l-3 5-3 2-1 16v65l5 2 2 3-1 5-4 5-7 1-5-3-2-5v-5l6-4v-80l-4-2-2-4 1-7 4-5z" fill="#020202"/>
<path transform="translate(1133,644)" d="m0 0 5 1 5 3 2 4-1 6 24 24 6 7 6 3 13 1 17-1 5-3 3-3 7 1 5 5 1 4-5 7-4 2-6-1-4-6-2-1h-30l-8-4-7-8-13-12-9-9-4-2-9-1-4-4-1-6z" fill="#020202"/>
<path transform="translate(735,323)" d="m0 0h9l3 3 2 10 9 10 22 22 6 4 3 1h19l5-1 2-5 2-1h6l5 5 1 6-6 7-4 1-7-5-5-2-19-1-9-4-8-8-8-7-17-17h-11l-5-5-1-5 4-6z" fill="#020202"/>
<path transform="translate(1111,665)" d="m0 0 5 1 4 5 1 5v8l4 2 10 9 26 26 2 4 2 10 6 9-1 5-9 4-6-1-3-3-1-8 7-7-1-9-9-11-17-17-8-7-5-4-12-4-4-5 1-6h2l2-4z" fill="#020202"/>
<path transform="translate(1165,274)" d="m0 0 6 1 5 6 1 2v6l-3 3-10 2-4 2-9 9-8 7-22 22-6 8-2 11-4 4-6-1-7-5-1-7 5-4 1-2 9 1 25-25 8-7 12-12 4-6v-9l3-1 1-4z" fill="#020202"/>
<path transform="translate(690,539)" d="m0 0 5 1 3 4v2h54l10-1 3-5h11l2 4v9l-2 4-4 2h-6l-5-7-63-1-1 6-3 2-7-1-4-7 1-9 2-2z" fill="#020202"/>
<path transform="translate(725,626)" d="m0 0h8l3 5 1 2h57l6-5 4-2 7 1 4 4v8l-5 4-4 2-5-1-4-5-62-1-1 5-2 2-7-1-4-5v-10z" fill="#020202"/>
<path transform="translate(875,688)" d="m0 0 6 1 3 4v8l-5 7-1 9-4 6-20 20-2 5v8l-3 4h-8l-5-4-2-9 6-4 11-1 2-4 18-18 2-4-1-9-6-6v-6l4-5z" fill="#020202"/>
<path transform="translate(796,300)" d="m0 0h7l5 5v8l7 8 19 19 12 5 7 7-1 4-8 6-4 1-6-4-1-4 1-8-7-8-10-10-8-7-3-3-11-2-5-6-1-4 5-5z" fill="#020202"/>
<path transform="translate(1187,499)" d="m0 0 5 1 5 7h21l12-1 7-6 7 1 4 4 1 7-3 5-4 3-6-1-4-4-1-2-5-1-29 1-5 5-6 1-5-4-2-3v-6l5-6z" fill="#020202"/>
<path transform="translate(860,206)" d="m0 0h9l5 6 2 4-6 7-2 1v37l2 5 23 23 5 8 1 6-5 1-4-11-11-12-15-14-2-8-1-34-5-6-1-7z" fill="#020202"/>
<path transform="translate(993,714)" d="m0 0h9l3 2 2 5v5l-5 5-1 9v30l6 6v7l-5 4-6 1-6-3-2-4v-6l6-4h2v-34l-1-6-6-3-1-1v-10z" fill="#020202"/>
<path transform="translate(1055,720)" d="m0 0 4 4 7 11 21 21 3 6v37l-1 2 6 3 3 5v5l-5 6-8 1-4-4-2-4 1-6 5-5 1-17v-19l-6-10-19-19-6-9-1-6z" fill="#020202"/>
<path transform="translate(954,259)" d="m0 0h7l5 5 1 7-5 6-2 1-1 18 5 2 2 3v7l-1 4-4 2h-9l-4-5-1-6 6-6v-20l-1-3-4-2v-6l3-5z" fill="#020202"/>
<path transform="translate(1084,684)" d="m0 0h7l5 8v9l10 9 5 4 9 1 4 2 2 6-4 7-4 3-7-1-5-8 2-1-2-8-4-2-9-9-11-3-5-4-1-6z" fill="#020202"/>
<path transform="translate(846,671)" d="m0 0 7 1 5 5v6l-5 5-10 3-5 5-7 4h-9l-5-1-3 5-5 3h-5l-5-6v-6l4-6 7-1 10 8h8l6-3h2l2-4 3-3v-8z" fill="#020202"/>
<path transform="translate(924,224)" d="m0 0h1l2 12 1-5h1v71l5 3 1 7-2 5-6 3-5-1-6-7-1-4 6-5h2z" fill="#020202"/>
<path transform="translate(1017,123)" d="m0 0 7 1 5 5 2 3-1 4-6 5h-2v16l3 7 28 28v30h-1l-1-24h-2l-3-6-25-25-4-8-1-14-3-9-2-1 1-6 3-5z" fill="#020202"/>
<path transform="translate(730,477)" d="m0 0h8l8 6 8 1 12-6h7l3 1 1 2v8l-3 5-3 2-6-1-11-8h-6l-11 8-7-1-4-5-1-7z" fill="#020202"/>
<path transform="translate(1159,340)" d="m0 0h9l4 5-1 8-2 3h-9l-11 10-10 4-9 8-4-1-5-4-3-6 2-3h2l2-4 5-2 6 3 1 4h6l6-4 7-10-1-5 3-5z" fill="#020202"/>
<path transform="translate(1049,256)" d="m0 0 3 3 1 50 6 4 1 6-3 5-5 2-6-1-5-4 1-7 5-7z" fill="#020202"/>
<path transform="translate(1187,626)" d="m0 0h8l8 3 16 16 8 7 11 8-4 2-4-2-9-7-18-18-9-4h-10l-18 1 4-4 3-1z" fill="#020202"/>
<path transform="translate(893,305)" d="m0 0 7 6 7 11-4 5-7 3-5-1-6-9 2-4 4-4z" fill="#020202"/>
<path transform="translate(925,142)" d="m0 0 7 1 3 3 3 7-4 5-4 3-1 11h-1l-1-8-3 1-2-7-6-5 1-4z" fill="#020202"/>
<path transform="translate(1250,650)" d="m0 0 7 1 5 5 1 4-4 6-5 3-5-1-5-4-1-2h-3l1-5 7-6z" fill="#020202"/>
<path transform="translate(1057,697)" d="m0 0h6l4 9-1 7-4 4-8 1-4-6-1-6 2-5z" fill="#020202"/>
<path transform="translate(1150,619)" d="m0 0 8 1 5 5 3 4-2 4-10 5-4-1-5-6-1-4 3-5z" fill="#020202"/>
</svg>
